#!OML:ASF H:\GeneralSubjects\Female5\Project 1\Capture day 1\Session 1\Female5.ASF
:FULLY-SPECIFIED
:DEGREES
631
root -18.0135 15.5905 5.60892 -714.178 -43.1035 -0.90669
lowerback 13.669 -1.89002 -4.05441
upperback -11.6573 -2.84625 5.23463
thorax -20.7175 -0.125855 9.33305
lowerneck -9.57242 -4.21149 -8.52876
upperneck 45.5145 -6.08696 -0.406007
head 19.4817 -4.53716 0.0171385
rclavicle -5.88403e-014 6.36111e-015
rhumerus -59.7468 19.8554 -77.573
rradius 28.4097
rwrist -14.4755
rhand -23.0958 -23.3209
rfingers 7.12502
rthumb 3.35061 -53.2743
lclavicle -5.88403e-014 6.36111e-015
lhumerus -53.4448 3.27464 79.4577
lradius 42.7475
lwrist -0.472943
lhand -23.4016 28.2609
lfingers 7.12502
lthumb 3.05526 58.2187
rfemur -19.4044 5.90925 33.9306
rtibia 8.02446
rfoot -20.44 -27.9453
rtoes 16.9664
lfemur 4.73463 2.25318 -21.2303
ltibia 38.5739
lfoot -13.0006 7.381
ltoes -7.01127
632
root -18.2818 15.635 5.76907 -714.049 -44.2577 -1.49406
lowerback 13.7727 -1.78002 -3.78252
upperback -11.3854 -2.6266 5.21526
thorax -20.4824 -0.0952859 9.06146
lowerneck -9.88293 -4.35332 -8.55777
upperneck 45.1356 -6.34451 -0.169004
head 19.345 -4.59947 0.0914123
rclavicle -1.12512e-013 3.18055e-015
rhumerus -59.0983 20.2141 -78.6485
rradius 28.8171
rwrist -14.6279
rhand -23.1292 -22.439
rfingers 7.12502
rthumb 3.31837 -52.3929
lclavicle -1.12512e-013 3.18055e-015
lhumerus -53.7411 4.33747 79.1045
lradius 41.3292
lwrist -1.0306
lhand -23.1272 27.3766
lfingers 7.12502
lthumb 3.32025 57.3305
rfemur -17.058 6.33566 35.1807
rtibia 6.65085
rfoot -19.2119 -27.7077
rtoes 14.2484
lfemur 2.60891 2.76839 -19.9727
ltibia 43.0215
lfoot -11.8475 15.474
ltoes -15.3704
633
root -18.5452 15.67 5.9216 -713.537 -45.2682 -2.45559
lowerback 13.7473 -1.70585 -3.35054
upperback -11.1875 -2.40584 5.28941
thorax -20.2623 -0.0750689 8.806
lowerneck -9.7168 -4.53512 -8.50839
upperneck 44.5181 -6.67214 -0.0511805
head 18.9142 -4.69558 0.106453
rclavicle -2.46493e-014 0
rhumerus -58.8102 20.9627 -79.9929
rradius 29.7579
rwrist -14.9075
rhand -22.9414 -21.9348
rfingers 7.12502
rthumb 3.49966 -51.8858
lclavicle -2.46493e-014 0
lhumerus -54.0459 5.66613 78.5393
lradius 39.6309
lwrist -2.82844
lhand -22.1087 26.8632
lfingers 7.12502
lthumb 4.30383 56.7995
rfemur -14.95 6.4692 36.6603
rtibia 5.4686
rfoot -18.1214 -27.165
rtoes 12.1423
lfemur 0.12743 3.79061 -18.4245
ltibia 46.7533
lfoot -8.67026 22.6594
ltoes -17.0578
634
root -18.8015 15.7025 6.06227 -712.803 -46.2034 -3.55715
lowerback 13.6919 -1.65508 -2.82721
upperback -11.0519 -2.19932 5.36815
thorax -20.1027 -0.0677929 8.51209
lowerneck -9.80529 -4.70563 -8.57561
upperneck 44.2743 -7.02449 0.207019
head 18.8241 -4.81078 0.17843
rclavicle -8.07066e-014 0
rhumerus -58.7932 21.984 -81.4945
rradius 31.1562
rwrist -15.0617
rhand -22.9125 -21.4772
rfingers 7.12502
rthumb 3.52755 -51.4278
lclavicle -8.07066e-014 0
lhumerus -54.6347 4.29339 79.8223
lradius 38.668
lwrist -2.32411
lhand -21.1742 27.4477
lfingers 7.12502
lthumb 5.20619 57.3637
rfemur -13.1996 6.33501 38.1408
rtibia 4.61338
rfoot -16.9145 -26.4858
rtoes 9.13472
lfemur -2.65108 4.29416 -17.008
ltibia 50.3776
lfoot -5.95209 28.6374
ltoes -26.4691
635
root -19.0459 15.7386 6.19936 -712.1 -47.1605 -4.23682
lowerback 13.442 -1.56624 -2.46696
upperback -11.0512 -2.04871 5.13452
thorax -20.456 -0.00939607 8.23629
lowerneck -9.28213 -4.76526 -8.58231
upperneck 44.4107 -7.37273 0.485402
head 18.8083 -4.94525 0.257386
rclavicle -8.07066e-014 1.59028e-014
rhumerus -59.2791 22.5805 -82.7685
rradius 32.75
rwrist -14.7434
rhand -22.8824 -20.4476
rfingers 7.12502
rthumb 3.55669 -50.3977
lclavicle -8.07066e-014 1.59028e-014
lhumerus -55.5563 3.7692 80.0072
lradius 37.4564
lwrist -2.00052
lhand -18.9696 26.1915
lfingers 7.12502
lthumb 7.33453 56.0444
rfemur -11.9594 6.01278 39.1278
rtibia 3.97606
rfoot -15.1756 -25.8478
rtoes 4.42038
lfemur -6.19448 4.37229 -16.6562
ltibia 53.9332
lfoot -6.0449 30.2053
ltoes -29.6507
636
root -19.2685 15.7759 6.3381 -711.559 -48.2424 -4.4405
lowerback 13.176 -1.46149 -2.27215
upperback -11.1953 -1.89877 4.92596
thorax -20.4988 0.00342712 7.81731
lowerneck -9.75395 -4.78935 -8.15
upperneck 44.8055 -7.45369 0.256942
head 19.1547 -4.94476 0.0203127
rclavicle 1.63003e-014 1.51076e-014
rhumerus -59.0826 22.9076 -83.4675
rradius 34.5384
rwrist -14.3806
rhand -22.3336 -19.8019
rfingers 7.12502
rthumb 4.08663 -49.7425
lclavicle 1.63003e-014 1.51076e-014
lhumerus -56.048 3.94954 79.767
lradius 35.9242
lwrist -3.67421
lhand -16.9195 24.6569
lfingers 7.12502
lthumb 9.31305 54.4312
rfemur -11.0444 5.48219 39.6063
rtibia 3.42282
rfoot -13.3192 -24.8269
rtoes -0.84469
lfemur -10.0471 4.18177 -16.9908
ltibia 57.4301
lfoot -11.9433 25.659
ltoes -25.5176
637
root -19.476 15.8097 6.4747 -711.076 -49.5338 -4.60004
lowerback 13.0331 -1.27364 -2.17589
upperback -11.2458 -1.64208 4.79242
thorax -20.5123 0.084761 7.51787
lowerneck -10.1696 -4.9708 -8.3292
upperneck 44.6726 -7.72586 0.440392
head 19.23 -5.05069 0.0723888
rclavicle -5.56597e-015 -1.82882e-014
rhumerus -58.7265 23.4735 -84.061
rradius 36.4594
rwrist -14.2267
rhand -22.5233 -19.7653
rfingers 7.12502
rthumb 3.90346 -49.7093
lclavicle -5.56597e-015 -1.82882e-014
lhumerus -56.4139 3.74539 80.025
lradius 34.6392
lwrist -4.80584
lhand -15.4193 23.5629
lfingers 7.12502
lthumb 10.7604 53.2673
rfemur -10.0365 5.41423 39.9753
rtibia 2.76129
rfoot -12.1032 -23.7255
rtoes -4.6493
lfemur -13.849 3.99586 -17.4154
ltibia 60.6002
lfoot -14.3988 21.2534
ltoes -28.2725
638
root -19.6771 15.8371 6.6109 -710.432 -50.9997 -5.00444
lowerback 12.9353 -1.02139 -1.96171
upperback -11.2647 -1.25842 4.72527
thorax -20.5322 0.212384 7.19623
lowerneck -10.7896 -5.07478 -8.15746
upperneck 44.8856 -7.81809 0.21768
head 19.5261 -5.08322 -0.121547
rclavicle -4.33351e-014 -1.11319e-014
rhumerus -58.3149 24.1559 -84.5719
rradius 38.2112
rwrist -14.2567
rhand -23.3446 -19.7409
rfingers 7.12502
rthumb 3.11035 -49.6979
lclavicle -4.33351e-014 -1.11319e-014
lhumerus -56.9712 2.82422 80.8993
lradius 33.9185
lwrist -4.72301
lhand -15.2377 23.1545
lfingers 7.12502
lthumb 10.9355 52.8497
rfemur -8.94229 5.46882 40.5036
rtibia 2.16213
rfoot -11.4211 -22.3333
rtoes -5.79905
lfemur -17.4901 3.98199 -17.6093
ltibia 62.5761
lfoot -15.4146 18.3989
ltoes -32.7305
639
root -19.8714 15.8598 6.74622 -709.77 -52.6304 -5.54892
lowerback 12.9328 -0.730818 -1.68699
upperback -11.1796 -0.798748 4.70066
thorax -20.4834 0.3659 6.86591
lowerneck -11.0579 -5.09171 -7.93396
upperneck 44.7135 -7.76642 -0.00583409
head 19.4493 -5.04781 -0.263523
rclavicle -1.16885e-013 -2.3059e-014
rhumerus -57.5231 24.6452 -84.6835
rradius 39.8385
rwrist -14.3772
rhand -23.7456 -19.6354
rfingers 7.12502
rthumb 2.72305 -49.5977
lclavicle -1.16885e-013 -2.3059e-014
lhumerus -56.9624 4.19505 79.8525
lradius 32.312
lwrist -7.25703
lhand -15.2068 21.9335
lfingers 7.12502
lthumb 10.9653 51.6271
rfemur -7.80145 5.28296 41.0617
rtibia 1.73335
rfoot -12.4622 -20.2966
rtoes 0.4823
lfemur -20.7793 3.23283 -17.6932
ltibia 64.0829
lfoot -18.207 14.6607
ltoes -33.4074
640
root -20.0611 15.8777 6.87593 -709.182 -54.4462 -6.11654
lowerback 13.0703 -0.381934 -1.57615
upperback -11.0246 -0.282693 4.73918
thorax -20.4431 0.576895 6.69179
lowerneck -10.8527 -5.14763 -7.88969
upperneck 43.9843 -7.74592 -0.126616
head 18.8993 -5.03843 -0.282974
rclavicle -5.12864e-014 -5.88403e-014
rhumerus -56.5991 25.2043 -84.5887
rradius 41.5137
rwrist -14.6506
rhand -23.8935 -19.6892
rfingers 7.12502
rthumb 2.58024 -49.6534
lclavicle -5.12864e-014 -5.88403e-014
lhumerus -57.3735 4.35321 79.9304
lradius 31.8586
lwrist -7.59238
lhand -15.3007 21.974
lfingers 7.12502
lthumb 10.8747 51.6724
rfemur -6.69629 5.54525 41.5307
rtibia 1.55244
rfoot -12.4036 -18.6963
rtoes 1.89271
lfemur -23.5255 1.17612 -17.2519
ltibia 65.5898
lfoot -22.9226 6.45338
ltoes -29.1542
641
root -20.2479 15.8871 7.00361 -708.271 -56.3551 -7.00592
lowerback 13.1692 -0.0703145 -1.22538
upperback -10.9379 0.219248 4.68894
thorax -20.4571 0.738096 6.27736
lowerneck -11.9983 -5.14358 -7.32208
upperneck 44.4744 -7.57988 -0.757247
head 19.4461 -4.95256 -0.728909
rclavicle 3.598e-014 -7.95139e-014
rhumerus -55.7859 25.7153 -84.7925
rradius 43.0946
rwrist -14.9868
rhand -24.2942 -19.7167
rfingers 7.12502
rthumb 2.19319 -49.6852
lclavicle 3.598e-014 -7.95139e-014
lhumerus -57.9312 4.52376 79.538
lradius 31.6203
lwrist -7.58866
lhand -15.4742 22.0128
lfingers 7.12502
lthumb 10.7074 51.7199
rfemur -5.74971 6.28891 42.1291
rtibia 1.61648
rfoot -11.6218 -17.644
rtoes -1.41818
lfemur -26.4637 1.1552 -17.3099
ltibia 64.3889
lfoot -24.3835 6.01411
ltoes -32.5192
